<svg width="52" height="74" viewBox="0 0 52 74" fill="none" xmlns="http://www.w3.org/2000/svg">
<path d="M24.8275 72.5146L50.9113 27.2721L24.5531 42.7659L24.8275 72.5146Z" fill="#DDDDDD"/>
<path d="M24.5531 42.7659L50.9113 27.2721L24.4124 27.5166L24.5531 42.7659Z" fill="#D9A9FF"/>
<path d="M24.2787 13.0172L50.9113 27.2721L24.1726 1.51766L13.7791 13.114L1.41341 27.7287L24.4124 27.5166L24.2787 13.0172Z" fill="#FF6363"/>
<path d="M50.9113 27.2721L24.2787 13.0172L24.4124 27.5166L50.9113 27.2721Z" fill="#57F8A1"/>
<path d="M1.41341 27.7287L24.8275 72.5146L24.5531 42.7659L24.4124 27.5166L1.41341 27.7287Z" fill="#E7B400"/>
<path d="M24.8275 72.5146L50.9113 27.2721M24.8275 72.5146L1.41341 27.7287M24.8275 72.5146L24.5531 42.7659M24.8275 72.5146L24.4124 27.5166M50.9113 27.2721L24.2787 13.0172L24.4124 27.5166M50.9113 27.2721L24.5531 42.7659M50.9113 27.2721L24.1726 1.51766L13.7791 13.114L1.41341 27.7287M50.9113 27.2721L24.4124 27.5166M1.41341 27.7287L24.4124 27.5166M24.5531 42.7659L24.4124 27.5166" stroke="#238187"/>
</svg>
