<svg width="420" height="240" viewBox="0 0 420 240" fill="none" xmlns="http://www.w3.org/2000/svg">
<g clip-path="url(#clip0_3_25)">
<mask id="mask0_3_25" style="mask-type:luminance" maskUnits="userSpaceOnUse" x="0" y="0" width="420" height="240">
<path d="M420 0H0V240H420V0Z" fill="white"/>
</mask>
<g mask="url(#mask0_3_25)">
<path d="M420 0H-54.7856V240H420V0Z" fill="white"/>
<path d="M420 233.175H-54.7856V240H420V233.175Z" fill="white"/>
<g filter="url(#filter0_f_3_25)">
<path d="M272.086 126.54C318.814 126.54 356.695 117.628 356.695 106.635C356.695 95.6417 318.814 86.7299 272.086 86.7299C225.358 86.7299 187.477 95.6417 187.477 106.635C187.477 117.628 225.358 126.54 272.086 126.54Z" fill="#2EB4FD"/>
</g>
<g filter="url(#filter1_f_3_25)">
<path d="M57.8238 86.4455C137.497 86.4455 202.086 70.3405 202.086 50.4739C202.086 30.6074 137.497 14.5024 57.8238 14.5024C-21.8498 14.5024 -86.438 30.6074 -86.438 50.4739C-86.438 70.3405 -21.8498 86.4455 57.8238 86.4455Z" fill="#FF915E"/>
</g>
<g filter="url(#filter2_f_3_25)">
<path d="M49.302 228.626C106.788 228.626 153.39 218.122 153.39 205.166C153.39 192.209 106.788 181.706 49.302 181.706C-8.184 181.706 -54.7856 192.209 -54.7856 205.166C-54.7856 218.122 -8.184 228.626 49.302 228.626Z" fill="#FFC43A"/>
</g>
<path d="M420 10.237H-54.7856V233.175H420V10.237Z" fill="white" fill-opacity="0.2"/>
</g>
<mask id="mask1_3_25" style="mask-type:luminance" maskUnits="userSpaceOnUse" x="66" y="97" width="288" height="46">
<path d="M353.678 97H66V142.953H353.678V97Z" fill="white"/>
</mask>
<g mask="url(#mask1_3_25)">
<path d="M83.3562 135.979C83.1576 136.058 82.9664 136.149 82.7843 136.252C82.5945 136.393 82.4299 136.556 82.2954 136.736C82.0682 136.99 81.9648 137.306 82.0053 137.62C81.9639 137.882 81.9951 138.147 82.0964 138.397C82.1824 138.56 82.2849 138.717 82.4031 138.867C82.5589 139.04 82.7529 139.188 82.975 139.302C83.2267 139.439 83.5082 139.534 83.8039 139.582C84.1019 139.633 84.4094 139.633 84.7073 139.582C85.006 139.55 85.2906 139.459 85.5361 139.317C85.7286 139.202 85.9064 139.072 86.0667 138.928C86.1776 138.809 86.2773 138.685 86.365 138.554C86.4483 138.399 86.5068 138.237 86.539 138.07C86.5677 137.864 86.5677 137.657 86.539 137.451C86.5163 137.295 86.4718 137.142 86.4064 136.994C86.3567 136.913 86.2158 136.729 86.0998 136.585C85.9166 136.385 85.6852 136.219 85.4201 136.095C85.1075 135.912 84.725 135.827 84.3426 135.857C84.0063 135.814 83.662 135.856 83.3562 135.979ZM90.8989 135.435C90.6412 135.514 90.3941 135.614 90.1611 135.734C89.9294 135.864 89.7179 136.018 89.5312 136.191C89.4019 136.314 89.2879 136.449 89.1914 136.592C89.1006 136.764 89.0257 136.942 88.9676 137.123C88.8954 137.327 88.851 137.538 88.835 137.749C88.8446 137.93 88.8807 138.108 88.9428 138.281C88.9958 138.424 89.0401 138.57 89.0754 138.717C89.1516 138.859 89.2582 138.987 89.3903 139.098C89.5058 139.185 89.6014 139.29 89.6721 139.405C89.6721 139.405 89.813 139.507 89.9705 139.575C90.1451 139.641 90.3116 139.721 90.4678 139.813L90.6667 139.949C96.6925 139.949 98.6735 139.949 98.9552 139.949C99.3509 139.929 99.7261 139.803 100.024 139.588C100.351 139.453 100.619 139.236 100.79 138.971C100.962 138.706 101.031 138.402 100.986 138.104C101.061 137.782 101.061 137.452 100.986 137.13C100.952 136.995 100.884 136.868 100.786 136.756C100.682 136.659 100.592 136.552 100.522 136.436C100.407 136.279 100.267 136.134 100.107 136.007C99.9347 135.886 99.7518 135.777 99.5607 135.68C99.3486 135.581 99.127 135.5 98.8972 135.435C97.5733 135.317 96.2399 135.29 94.9105 135.353C91.6945 135.332 91.2055 135.347 90.8656 135.435H90.8989ZM203.523 135.714C203.523 138.56 203.523 139.357 203.606 139.385C203.768 139.452 203.937 139.506 204.112 139.547L204.807 139.759C204.965 139.807 205.321 139.902 205.637 139.963C205.951 140.024 206.282 140.113 206.465 140.14C206.778 140.195 207.092 140.236 207.41 140.262C207.841 140.262 215.948 140.317 230.618 140.317C245.488 140.317 253.221 140.317 253.337 140.262L253.511 140.208V135.299C215.384 135.244 208.231 135.216 207.866 135.169C207.586 135.137 207.309 135.089 207.037 135.026C206.888 134.978 206.631 134.89 206.482 134.829C206.333 134.767 206.059 134.631 205.885 134.542C205.502 134.305 205.136 134.047 204.791 133.773C204.429 133.485 204.114 133.16 203.854 132.806C203.743 132.636 203.651 132.458 203.581 132.274C203.59 132.166 203.531 133.718 203.523 135.714ZM154.033 132.227C153.899 132.491 153.732 132.742 153.535 132.976C153.319 133.199 153.086 133.411 152.838 133.61C152.58 133.814 152.302 134.003 152.01 134.175C151.696 134.327 151.37 134.459 151.032 134.57L150.502 134.726C115.109 134.774 104.79 134.801 104.74 134.829C104.62 135.651 104.592 136.481 104.657 137.307V139.745C104.948 139.84 112.706 139.854 127.758 139.847H150.502C151.399 139.714 152.287 139.542 153.162 139.33L153.95 139.085C154.102 139.051 154.233 138.971 154.315 138.86C154.315 138.792 154.381 137.342 154.372 135.592C154.364 133.842 154.372 132.309 154.323 132.132V131.819L154.033 132.227ZM85.9837 118.22C85.802 118.259 85.6268 118.316 85.4616 118.39C85.2875 118.463 85.1257 118.555 84.9808 118.662C84.8033 118.821 84.6502 118.997 84.525 119.186C84.3186 119.446 84.2305 119.757 84.2763 120.064C84.2465 120.331 84.3129 120.599 84.4669 120.834C84.5817 121.019 84.7207 121.192 84.8814 121.352C85.0723 121.505 85.2902 121.633 85.5279 121.733C85.8438 121.882 86.2108 121.943 86.5723 121.903C86.9155 121.938 87.2634 121.883 87.5669 121.746C87.804 121.637 88.0239 121.505 88.2216 121.352C88.3705 121.227 88.5012 121.087 88.6112 120.937C88.6983 120.77 88.765 120.597 88.8101 120.419C88.875 120.196 88.875 119.962 88.8101 119.738C88.7693 119.55 88.7026 119.368 88.6112 119.193C88.4838 119.015 88.3277 118.853 88.1471 118.71C87.9543 118.554 87.7335 118.423 87.4922 118.321C87.2269 118.239 86.9469 118.193 86.6634 118.185C86.436 118.176 86.2081 118.188 85.9837 118.22ZM92.3659 117.845C92.1482 117.909 91.9374 117.99 91.7359 118.084C91.5423 118.174 91.3592 118.278 91.1889 118.397C91.0412 118.52 90.9106 118.657 90.7993 118.805C90.6655 118.985 90.557 119.177 90.4761 119.377C90.3892 119.629 90.3583 119.892 90.385 120.153C90.3758 120.48 90.4761 120.803 90.675 121.086C90.753 121.245 90.8561 121.393 90.9817 121.529C91.137 121.609 91.2792 121.705 91.4044 121.815C91.5778 121.967 91.7942 122.082 92.0344 122.149C92.1752 122.149 95.5984 122.19 99.6271 122.19H106.962C107.295 122.078 107.595 121.908 107.841 121.693C108.01 121.52 108.167 121.341 108.313 121.155C108.461 120.944 108.562 120.713 108.611 120.473C108.679 120.204 108.679 119.926 108.611 119.657C108.549 119.42 108.451 119.191 108.321 118.975C108.168 118.773 107.988 118.585 107.782 118.417C107.53 118.244 107.251 118.101 106.954 117.988L106.497 117.811C94.2391 117.776 92.5814 117.791 92.3659 117.845ZM203.523 120.337C203.523 123.456 203.523 125.948 203.564 125.887C203.606 125.826 203.755 125.513 203.937 125.206C204.115 124.898 204.324 124.602 204.559 124.321C204.728 124.141 204.91 123.97 205.106 123.81C205.247 123.708 205.52 123.524 205.72 123.402C205.963 123.259 206.218 123.129 206.482 123.013C206.807 122.891 207.146 122.796 207.493 122.728C208.065 122.632 208.936 122.625 226.665 122.598H245.248V117.634C209.117 117.599 207.882 117.593 207.427 117.498C207.057 117.412 206.696 117.3 206.349 117.164C205.878 116.975 205.454 116.717 205.097 116.402C204.757 116.133 204.44 115.843 204.152 115.536C203.99 115.348 203.841 115.152 203.705 114.95C203.684 114.864 203.646 114.781 203.59 114.705C203.59 114.705 203.523 117.225 203.523 120.337ZM153.991 114.589C153.852 114.86 153.68 115.118 153.477 115.359C153.224 115.605 152.947 115.832 152.648 116.041C152.348 116.271 152.01 116.469 151.645 116.626C151.344 116.748 151.031 116.849 150.708 116.925C150.335 117.008 148.346 117.014 131.645 117.014C116.883 117.014 112.979 117.014 112.838 117.089L112.665 117.157V122.039C112.979 122.169 116.883 122.183 131.629 122.183H150.295C150.888 122.314 151.463 122.497 152.01 122.728C152.279 122.88 152.536 123.047 152.781 123.225C153.044 123.436 153.288 123.664 153.511 123.905C153.721 124.155 153.899 124.422 154.041 124.703L154.264 125.145C154.331 124.464 154.347 122.094 154.339 119.493C154.331 116.892 154.339 114.624 154.273 114.447L154.206 114.134L153.991 114.589ZM67.7076 100.629C67.4368 100.693 67.1835 100.8 66.9616 100.943C66.735 101.079 66.5363 101.245 66.3732 101.433C66.2644 101.584 66.1701 101.741 66.0913 101.904C66.0303 102.101 65.9996 102.305 66.0002 102.51C65.9884 102.763 66.0601 103.015 66.2074 103.238C66.3462 103.445 66.5159 103.637 66.713 103.81C66.9182 103.962 67.1501 104.088 67.4009 104.184C67.661 104.283 67.9436 104.333 68.2298 104.334C68.5113 104.333 68.7908 104.296 69.0586 104.225C69.3746 104.142 69.6597 103.994 69.8875 103.796C70.0947 103.636 70.2733 103.453 70.4179 103.251C70.5469 102.998 70.6009 102.722 70.5755 102.448V101.835C70.3208 101.48 69.9925 101.164 69.6056 100.902C69.3752 100.781 69.1237 100.689 68.8597 100.629C68.6674 100.588 68.4699 100.566 68.2712 100.561C68.0815 100.572 67.8931 100.595 67.7076 100.629ZM74.9766 100.214C74.6859 100.293 74.4078 100.401 74.1478 100.535C73.9114 100.67 73.6993 100.833 73.5179 101.018C73.4036 101.135 73.2985 101.257 73.2029 101.386C73.1105 101.584 73.0329 101.786 72.9708 101.992C72.8308 102.276 72.8308 102.593 72.9708 102.877C73.0403 103.092 73.1232 103.303 73.2195 103.51C73.3451 103.707 73.5011 103.89 73.6836 104.055C73.9199 104.261 74.201 104.43 74.5124 104.553C74.7737 104.665 75.0526 104.748 75.3414 104.798C75.5983 104.838 79.5933 104.859 87.7741 104.844H99.7925C100.283 104.737 100.733 104.531 101.102 104.245C101.298 104.066 101.465 103.867 101.6 103.654C101.715 103.435 101.799 103.206 101.848 102.972C101.893 102.714 101.893 102.453 101.848 102.196C101.805 101.964 101.733 101.735 101.632 101.515C101.516 101.317 101.383 101.126 101.235 100.943C101.073 100.755 100.867 100.595 100.629 100.473C100.382 100.355 100.118 100.264 99.8426 100.2C99.4686 100.119 98.0353 100.112 87.4094 100.112C75.8552 100.106 75.3744 100.106 74.9766 100.214ZM308.455 99.9285C307.685 99.9285 306.301 100.03 305.38 100.099C304.461 100.167 303.043 100.275 302.239 100.357C301.435 100.439 300.018 100.602 299.089 100.725C298.162 100.848 296.785 101.058 296.022 101.188C295.26 101.318 293.818 101.59 292.824 101.794C291.829 101.998 290.188 102.373 289.16 102.625L286.383 103.306C285.878 103.429 285.148 103.626 284.725 103.735C284.302 103.844 283.548 104.082 283.01 104.26C282.471 104.437 281.642 104.715 281.161 104.899C280.681 105.083 279.752 105.458 279.105 105.743C278.459 106.03 277.449 106.5 276.868 106.793C276.288 107.086 275.426 107.548 274.944 107.834C274.464 108.121 273.602 108.652 273.022 109.026C272.593 109.285 272.211 109.592 271.887 109.939L271.787 110.122C272.484 110.654 272.542 110.674 272.748 110.64C272.955 110.606 273.934 110.218 275.103 109.748C276.272 109.278 277.705 108.706 278.277 108.488C278.849 108.27 280.084 107.807 281.004 107.487C281.924 107.167 283.216 106.704 283.863 106.48C284.51 106.255 285.761 105.853 286.624 105.581C287.486 105.308 288.687 104.899 289.284 104.75C289.88 104.599 290.992 104.3 291.77 104.15C292.55 104 293.86 103.748 294.704 103.606C295.55 103.462 296.926 103.251 297.771 103.136C298.617 103.02 299.927 102.87 300.673 102.795C301.418 102.72 302.803 102.598 303.748 102.536C304.693 102.475 306.134 102.394 306.956 102.366C307.776 102.339 309.517 102.305 310.801 102.305C312.086 102.305 313.892 102.305 314.813 102.359C315.733 102.414 317.2 102.462 318.061 102.51C318.924 102.556 320.275 102.645 321.062 102.707L324.12 102.993C325.015 103.088 326.383 103.245 327.163 103.34C327.941 103.435 329.218 103.619 330.006 103.742C330.792 103.864 332.352 104.144 333.462 104.348C334.572 104.552 336.271 104.879 337.233 105.063L340.026 105.635L342.297 106.159C342.969 106.316 344.17 106.581 344.966 106.745L346.417 107.038C346.232 107.238 345.996 107.403 345.725 107.521C345.455 107.638 345.156 107.706 344.85 107.718C344.311 107.807 343.632 107.943 343.342 108.005C343.052 108.066 342.512 108.215 342.206 108.318C341.894 108.402 341.596 108.524 341.327 108.679C341.158 108.804 341.021 108.954 340.922 109.122C340.829 109.282 340.775 109.455 340.763 109.632C340.764 109.805 340.801 109.975 340.872 110.136C340.957 110.312 341.08 110.474 341.236 110.613C341.402 110.745 341.595 110.848 341.809 110.919C342.019 110.985 342.248 111.004 342.472 110.973C342.946 110.887 343.413 110.778 343.872 110.647C344.524 110.463 345.162 110.253 345.787 110.013C346.827 109.628 347.917 109.34 349.035 109.155C349.946 109.006 350.836 108.778 351.688 108.475C351.88 108.353 352.045 108.206 352.177 108.039C352.351 107.843 352.426 107.598 352.384 107.358C352.4 107.149 352.348 106.939 352.235 106.752C351.941 106.421 351.601 106.12 351.224 105.853C350.743 105.498 350.055 105.022 349.69 104.783C349.325 104.545 348.414 104.014 347.668 103.592C346.923 103.17 346.01 102.687 345.712 102.523C345.414 102.359 344.801 102.101 344.419 101.944C344.038 101.788 343.441 101.563 343.093 101.447C342.799 101.343 342.494 101.263 342.181 101.208C341.983 101.18 341.781 101.211 341.609 101.297C341.433 101.367 341.283 101.473 341.17 101.604C341.05 101.751 341.006 101.932 341.045 102.107C341.045 102.414 341.087 102.441 341.7 103.027C342.057 103.354 342.637 103.871 342.994 104.177C343.35 104.484 343.922 104.927 344.245 105.172C344.825 105.601 344.833 105.608 344.527 105.498L342.53 104.77C341.609 104.437 340.531 104.055 340.126 103.925C339.719 103.796 338.891 103.558 338.269 103.387C337.648 103.217 336.686 102.959 336.106 102.823C335.526 102.687 334.548 102.448 333.835 102.311C333.122 102.175 331.969 101.944 331.183 101.801C330.395 101.658 329.11 101.433 328.323 101.304C327.536 101.174 326.135 100.97 325.215 100.841C324.295 100.712 322.687 100.521 321.65 100.412C320.614 100.303 319.073 100.167 318.228 100.099C317.382 100.03 315.873 99.9553 314.912 99.9218C313.95 99.8874 312.376 99.874 311.489 99.874C310.601 99.874 309.218 99.9075 308.455 99.9285ZM207.336 99.9285C207.078 99.9285 206.639 100.01 206.358 100.064L205.339 100.275C205.031 100.349 204.73 100.435 204.434 100.535C204.202 100.616 203.763 100.793 203.457 100.922C203.15 101.051 202.752 101.235 202.57 101.331L202.139 101.569C202.04 101.617 202.064 101.699 202.371 102.21C202.608 102.619 202.808 103.042 202.967 103.476C203.111 103.857 203.23 104.243 203.324 104.634C203.425 105.325 203.47 106.021 203.457 106.718V108.318C203.653 107.913 203.877 107.517 204.128 107.133C204.389 106.783 204.704 106.463 205.065 106.18C205.417 105.848 205.849 105.579 206.333 105.389C206.651 105.262 206.977 105.151 207.311 105.056C207.659 104.96 209.341 104.954 230.519 104.927L253.362 104.892C253.362 100.596 253.362 100.003 253.304 99.9419C253.246 99.8807 249.018 99.874 230.485 99.8807C218.036 99.8807 207.61 99.9008 207.36 99.9218L207.336 99.9285ZM104.724 99.4518C104.591 99.4518 104.583 99.5198 104.608 101.937V104.402C104.848 104.443 114.994 104.457 127.302 104.457C145.993 104.457 149.789 104.457 150.277 104.538C150.637 104.588 150.989 104.665 151.33 104.77C151.65 104.889 151.955 105.033 152.242 105.199C152.545 105.375 152.823 105.579 153.071 105.805C153.269 105.996 153.527 106.255 153.626 106.377C153.776 106.576 153.909 106.783 154.024 106.997C154.084 107.128 154.158 107.253 154.248 107.371C154.248 107.371 154.289 106.813 154.323 106.152C154.345 105.545 154.417 104.94 154.538 104.341C154.642 103.943 154.773 103.549 154.927 103.162C155.13 102.734 155.36 102.313 155.615 101.904L156.064 101.222C155.532 100.921 154.979 100.648 154.405 100.405C154.099 100.275 153.642 100.106 153.394 100.023C153.004 99.8931 152.605 99.7792 152.201 99.6835C151.762 99.5877 151.222 99.4853 151.016 99.4585C150.808 99.4307 140.34 99.4173 127.758 99.4173C115.176 99.4173 104.798 99.4307 104.724 99.4518Z" fill="#FF5100"/>
<path fill-rule="evenodd" clip-rule="evenodd" d="M309.326 111.341H321.053V115.645H314.423V123.218H319.173V127.814H314.423V135.673H321.053V139.977H309.358L309.326 111.341ZM297.249 124.021C297.589 124.022 297.928 123.992 298.261 123.933C298.544 123.877 298.821 123.802 299.089 123.708C299.343 123.596 299.577 123.456 299.786 123.293C300.015 123.087 300.212 122.858 300.374 122.612C300.541 122.337 300.674 122.05 300.772 121.754C300.866 121.431 300.938 121.103 300.987 120.773C300.987 120.494 301.062 120.044 301.062 119.786C301.057 119.439 301.029 119.094 300.979 118.751C300.937 118.408 300.865 118.069 300.763 117.736C300.669 117.437 300.539 117.148 300.374 116.871C300.218 116.622 300.02 116.393 299.786 116.19C299.58 116.026 299.344 115.888 299.089 115.781C298.848 115.691 298.595 115.622 298.335 115.577C298.086 115.54 297.834 115.52 297.581 115.516H297.249V124.021ZM292.151 111.341H295.276C296.565 111.312 297.855 111.342 299.139 111.43C299.597 111.487 300.05 111.564 300.498 111.662C301.252 111.841 301.969 112.109 302.629 112.458C302.956 112.655 303.266 112.872 303.556 113.105C303.814 113.318 304.052 113.546 304.27 113.786C304.402 113.95 304.651 114.283 304.808 114.536C305.004 114.86 305.175 115.194 305.322 115.536C305.472 115.913 305.593 116.298 305.686 116.687C305.769 117.021 305.869 117.559 305.91 117.892C305.952 118.226 305.994 119.023 305.994 119.67C306.012 120.332 305.964 120.995 305.853 121.652C305.769 122.094 305.62 122.7 305.521 123.013C305.422 123.327 305.223 123.763 305.098 124.014C304.975 124.266 304.725 124.655 304.568 124.88C304.168 125.35 303.703 125.783 303.184 126.167L304.792 133.011C305.678 136.776 306.45 139.895 306.45 139.956C306.45 140.017 306.317 140.052 301.311 140.052L301.236 139.663C301.195 139.453 300.606 136.736 298.684 127.978L297.249 127.923V140.031H292.151V111.341ZM280.548 124.281C281.493 124.212 281.932 124.158 282.122 124.13C282.375 124.078 282.62 124.002 282.852 123.905C283.334 123.719 283.717 123.395 283.929 122.993C284.055 122.751 284.154 122.5 284.228 122.244C284.369 121.523 284.411 120.793 284.352 120.064C284.393 119.337 284.354 118.607 284.236 117.885C284.168 117.622 284.077 117.363 283.963 117.109C283.854 116.89 283.712 116.681 283.54 116.49C283.37 116.324 283.169 116.181 282.944 116.067C282.702 115.96 282.45 115.871 282.189 115.802C281.855 115.73 281.514 115.684 281.169 115.665L280.572 115.632L280.548 124.281ZM275.468 111.341H278.783C280.069 111.307 281.357 111.346 282.636 111.457C282.926 111.505 283.466 111.621 283.805 111.716C284.187 111.824 284.56 111.949 284.925 112.091C285.181 112.2 285.571 112.384 285.795 112.506C286.019 112.629 286.383 112.874 286.623 113.051C286.924 113.289 287.201 113.546 287.452 113.821C287.761 114.176 288.038 114.549 288.282 114.937C288.512 115.328 288.714 115.731 288.886 116.142C288.993 116.442 289.151 116.946 289.225 117.259C289.3 117.572 289.392 118.117 289.433 118.465C289.475 118.812 289.507 119.5 289.507 119.99C289.507 120.48 289.507 121.107 289.441 121.393C289.376 121.678 289.3 122.196 289.225 122.544C289.131 122.93 289.012 123.312 288.87 123.688C288.753 123.973 288.546 124.369 288.413 124.634C288.229 124.947 288.022 125.249 287.792 125.539C287.525 125.86 287.229 126.164 286.905 126.446C286.568 126.728 286.202 126.985 285.811 127.215C285.471 127.402 285.12 127.576 284.758 127.733C284.385 127.88 283.999 128.007 283.607 128.114C283.138 128.238 282.658 128.332 282.172 128.393C281.775 128.441 281.227 128.496 280.514 128.536V140.031H275.45L275.468 111.341ZM261.94 111.341L263.408 115.127C263.835 116.417 264.358 117.683 264.974 118.92C265.056 118.92 265.463 117.927 268.016 111.341H270.503C271.879 111.341 272.989 111.341 272.989 111.389C272.989 111.437 271.746 114.474 267.468 124.968L270.271 132.459C271.812 136.544 273.088 139.949 273.096 139.991C273.104 140.031 272.582 140.059 268.123 140.059L268.057 139.875C268.057 139.772 267.353 137.832 266.557 135.516C265.761 133.201 265.123 131.301 265.123 131.253C265.123 131.206 265.064 131.165 264.982 131.165C264.964 131.163 264.947 131.164 264.929 131.169C264.912 131.172 264.897 131.18 264.883 131.19C264.87 131.199 264.859 131.211 264.852 131.224C264.844 131.238 264.841 131.252 264.841 131.267C264.841 131.322 264.178 133.31 263.366 135.638C262.553 137.968 261.882 139.949 261.866 139.991C261.026 140.091 260.175 140.114 259.329 140.059C257.348 140.059 256.843 140.059 256.843 139.991C256.843 139.923 258.12 136.497 262.438 124.92L259.678 118.165C258.16 114.447 256.917 111.389 256.917 111.355C256.917 111.321 258.07 111.341 261.94 111.341ZM347.104 111.041C347.395 111.041 347.85 111.089 348.124 111.117C348.5 111.173 348.872 111.25 349.234 111.349C349.624 111.457 349.998 111.596 350.353 111.763C350.685 111.934 350.999 112.128 351.29 112.342C351.596 112.591 351.874 112.862 352.12 113.153C352.363 113.472 352.576 113.807 352.757 114.154C352.934 114.519 353.087 114.892 353.214 115.271C353.313 115.591 353.446 116.094 353.503 116.394C353.588 116.846 353.642 117.301 353.669 117.756C353.733 118.038 353.733 118.326 353.669 118.607L351.183 118.798C349.857 118.9 348.754 118.975 348.696 118.968C348.651 118.758 348.633 118.542 348.646 118.329C348.64 117.929 348.604 117.531 348.539 117.137C348.483 116.829 348.402 116.523 348.298 116.224C348.204 115.986 348.08 115.758 347.925 115.543C347.787 115.356 347.61 115.191 347.403 115.053C347.293 114.984 347.167 114.933 347.035 114.903C346.901 114.875 346.761 114.867 346.624 114.882C346.355 114.854 346.082 114.909 345.861 115.039C345.685 115.143 345.531 115.269 345.406 115.414C345.29 115.573 345.198 115.741 345.132 115.918C345.049 116.141 344.983 116.368 344.932 116.599C344.901 116.962 344.901 117.325 344.932 117.688C344.948 118.056 345.01 118.422 345.124 118.778C345.299 119.2 345.51 119.612 345.754 120.011C346.01 120.453 346.45 121.1 346.715 121.447C346.98 121.794 347.544 122.516 348.017 123.054C348.489 123.592 349.202 124.478 349.674 125.036C350.147 125.594 350.792 126.459 351.175 126.983C351.556 127.508 352.11 128.345 352.418 128.85C352.724 129.354 353.055 130.001 353.172 130.279C353.288 130.559 353.454 131.029 353.536 131.315C353.666 131.853 353.728 132.401 353.718 132.949C353.756 133.553 353.73 134.159 353.644 134.761C353.587 135.135 353.454 135.693 353.371 135.993C353.288 136.292 353.097 136.729 352.981 136.966C352.865 137.205 352.624 137.593 352.459 137.832C352.241 138.112 352 138.381 351.737 138.635C351.277 139.067 350.713 139.414 350.08 139.656C349.675 139.815 349.253 139.944 348.821 140.038C348.228 140.165 347.617 140.226 347.005 140.222C346.424 140.246 345.842 140.233 345.265 140.181C344.85 140.135 344.44 140.064 344.038 139.97C343.671 139.879 343.31 139.768 342.96 139.636C342.618 139.492 342.292 139.326 341.982 139.139C341.665 138.937 341.374 138.708 341.112 138.458C340.841 138.17 340.602 137.862 340.399 137.539C340.186 137.191 340.007 136.832 339.86 136.463C339.711 136.067 339.591 135.665 339.504 135.257C339.429 134.903 339.338 134.317 339.296 133.956C339.255 133.596 339.222 132.983 339.222 131.913L341.708 131.73L344.195 131.539C344.25 131.878 344.28 132.219 344.287 132.561C344.287 133.12 344.378 133.773 344.428 134.011C344.501 134.313 344.595 134.61 344.709 134.903C344.818 135.17 344.957 135.428 345.124 135.673C345.256 135.855 345.428 136.017 345.629 136.15C345.832 136.254 346.057 136.329 346.292 136.368C346.512 136.391 346.735 136.391 346.955 136.368C347.136 136.341 347.312 136.295 347.477 136.231C347.645 136.152 347.797 136.051 347.925 135.931C348.084 135.767 348.218 135.586 348.323 135.393C348.465 135.109 348.571 134.812 348.638 134.509C348.724 134.081 348.752 133.647 348.721 133.214C348.735 132.776 348.647 132.339 348.464 131.928C348.298 131.545 348.107 131.17 347.892 130.804C347.709 130.491 347.229 129.809 346.831 129.286C346.433 128.761 345.886 128.08 345.621 127.767C345.355 127.453 344.593 126.534 343.963 125.724C343.334 124.913 342.629 124.056 342.438 123.797C342.248 123.538 341.908 123.021 341.659 122.625C341.41 122.23 341.087 121.61 340.922 121.263C340.755 120.916 340.523 120.372 340.424 120.092C340.324 119.813 340.192 119.411 340.126 119.145C340.047 118.747 340 118.344 339.985 117.94C339.949 117.486 339.949 117.031 339.985 116.579C340.034 116.258 340.15 115.733 340.249 115.4C340.352 115.049 340.482 114.702 340.64 114.365C340.797 114.064 340.978 113.77 341.178 113.486C341.418 113.17 341.695 112.873 342.007 112.601C342.262 112.376 342.539 112.168 342.836 111.981C343.1 111.825 343.377 111.685 343.665 111.559C344.006 111.431 344.358 111.322 344.717 111.233C345.121 111.142 345.535 111.08 345.952 111.049C346.3 111.049 346.822 111.035 347.104 111.041ZM330.834 111.041C331.125 111.041 331.564 111.089 331.812 111.117C332.061 111.144 332.491 111.233 332.757 111.294C333.103 111.387 333.441 111.501 333.768 111.634C334.111 111.786 334.438 111.962 334.746 112.159C335.048 112.364 335.325 112.591 335.576 112.839C335.833 113.127 336.06 113.433 336.255 113.753C336.44 114.071 336.603 114.399 336.744 114.733C336.843 114.985 337.001 115.503 337.092 115.877C337.184 116.251 337.291 116.864 337.333 117.238C337.374 117.614 337.407 118.063 337.407 118.601H337.075L334.788 118.771C333.71 118.846 332.733 118.928 332.376 118.968V118.485C332.376 118.213 332.376 117.743 332.31 117.436C332.269 117.122 332.205 116.811 332.118 116.503C332.043 116.258 331.94 116.019 331.812 115.788C331.692 115.582 331.538 115.39 331.356 115.216C331.207 115.1 331.039 114.999 330.859 114.917C330.508 114.799 330.115 114.799 329.765 114.917C329.581 114.994 329.413 115.096 329.267 115.216C329.114 115.377 328.991 115.556 328.902 115.748C328.802 115.968 328.728 116.196 328.679 116.428C328.627 116.765 328.603 117.104 328.604 117.443C328.597 117.821 328.645 118.199 328.745 118.567C328.847 118.889 328.974 119.206 329.127 119.513C329.259 119.779 329.599 120.324 329.873 120.718C330.146 121.114 330.792 121.951 331.323 122.577L333.204 124.872C333.718 125.506 334.431 126.425 334.788 126.915C335.145 127.406 335.616 128.074 335.824 128.407C336.031 128.741 336.354 129.306 336.537 129.667C336.733 130.119 336.899 130.581 337.035 131.049C337.142 131.396 337.266 131.921 337.315 132.221C337.371 132.716 337.385 133.214 337.357 133.711C337.331 134.249 337.27 134.786 337.174 135.319C337.092 135.686 336.951 136.204 336.852 136.469C336.712 136.811 336.545 137.146 336.354 137.471C336.162 137.793 335.935 138.101 335.675 138.39C335.427 138.655 335.149 138.902 334.846 139.125C334.5 139.352 334.128 139.551 333.735 139.718C333.305 139.88 332.862 140.015 332.409 140.127C330.959 140.335 329.475 140.335 328.024 140.127C327.607 140.037 327.198 139.925 326.798 139.792C326.48 139.669 326.172 139.528 325.878 139.37C325.579 139.207 325.302 139.021 325.049 138.812C324.816 138.599 324.603 138.371 324.41 138.131C324.243 137.929 324.088 137.721 323.947 137.504C323.855 137.348 323.673 136.987 323.548 136.701C323.425 136.415 323.258 135.87 323.159 135.496C323.06 135.122 322.968 134.509 322.927 134.134C322.885 133.759 322.844 133.126 322.811 131.921L325.156 131.737C326.441 131.642 327.576 131.553 327.875 131.553V132.411C327.875 132.86 327.925 133.487 327.975 133.773C328.051 134.151 328.156 134.523 328.29 134.89C328.397 135.173 328.539 135.447 328.713 135.707C328.85 135.879 329.021 136.03 329.218 136.156C329.43 136.266 329.662 136.346 329.906 136.395C330.147 136.436 330.395 136.436 330.635 136.395C330.874 136.342 331.099 136.255 331.298 136.136C331.53 135.988 331.714 135.796 331.838 135.577C331.979 135.33 332.092 135.073 332.177 134.808C332.284 134.374 332.326 133.93 332.301 133.487C332.374 132.991 332.297 132.489 332.078 132.023C331.915 131.643 331.727 131.269 331.514 130.906C331.332 130.586 330.893 129.946 330.536 129.469C330.18 128.993 329.483 128.107 328.995 127.549C328.505 126.991 327.643 125.915 327.088 125.226C326.532 124.539 325.886 123.674 325.646 123.334C325.406 122.993 325.057 122.387 324.817 122.013C324.576 121.638 324.32 121.039 324.179 120.691C324.038 120.344 323.838 119.793 323.731 119.458C323.552 118.849 323.49 118.219 323.548 117.593C323.507 116.986 323.56 116.378 323.706 115.781C323.78 115.488 323.93 115.039 324.029 114.794C324.145 114.52 324.278 114.252 324.427 113.99C324.551 113.793 324.783 113.466 324.949 113.261C325.183 112.989 325.444 112.731 325.728 112.493C326.015 112.257 326.325 112.043 326.657 111.852C326.936 111.704 327.226 111.572 327.527 111.457C327.846 111.348 328.172 111.257 328.505 111.185C328.885 111.111 329.27 111.06 329.658 111.028C330.047 111.041 330.544 111.035 330.834 111.041ZM167.949 97C169.317 97 170.899 97 171.479 97.0479C172.06 97.0957 172.773 97.1493 173.087 97.1972C173.402 97.2451 173.958 97.3743 174.339 97.4767C174.757 97.5907 175.167 97.7247 175.566 97.8788C175.848 97.9947 176.279 98.1852 176.503 98.301C176.788 98.4437 177.064 98.5978 177.331 98.7634C177.555 98.907 178.002 99.2067 178.897 99.8606L179.511 99.3972C179.934 99.0813 180.383 98.7902 180.854 98.525C181.289 98.2876 181.744 98.0741 182.213 97.8855C182.634 97.7247 183.066 97.584 183.506 97.4634C183.909 97.3581 184.318 97.2719 184.733 97.2039C185.251 97.1302 185.774 97.0804 186.3 97.0546C186.879 97.0546 188.388 97 189.656 97C190.925 97 192.458 97 193.071 97.0546C193.697 97.0795 194.318 97.1503 194.927 97.2652C195.334 97.3475 195.88 97.4768 196.146 97.5581C196.412 97.6405 196.884 97.7965 197.198 97.919C197.514 98.0416 198.028 98.2943 198.384 98.4781C198.782 98.7003 199.166 98.9386 199.536 99.1923C199.826 99.4039 200.299 99.7849 200.589 100.051C200.949 100.38 201.286 100.726 201.6 101.086C201.901 101.445 202.178 101.818 202.429 102.202C202.656 102.604 202.851 103.019 203.009 103.442C203.142 103.816 203.308 104.361 203.374 104.647C203.476 105.341 203.515 106.04 203.489 106.738C203.489 107.609 203.489 109.714 203.489 111.417C203.489 113.119 203.489 117.109 203.489 120.269C203.489 123.428 203.489 127.365 203.489 128.986C203.489 130.607 203.489 134.433 203.489 142.905H200.473C198.816 142.905 197.439 142.905 197.431 142.905C197.422 142.905 197.431 134.42 197.339 105.247L197.149 104.818C197.03 104.562 196.889 104.314 196.726 104.076C196.485 103.774 196.207 103.494 195.898 103.238C195.501 102.89 195.013 102.62 194.472 102.448C194.096 102.29 193.698 102.172 193.287 102.094C193.013 102.094 191.538 102.033 189.581 102.039C188.348 102 187.114 102.025 185.885 102.114C185.523 102.19 185.17 102.295 184.832 102.427C184.484 102.568 184.151 102.732 183.838 102.917C183.552 103.122 183.295 103.35 183.066 103.599C182.858 103.812 182.673 104.04 182.512 104.28C182.32 104.615 182.151 104.957 182.006 105.308V120.753C182.006 129.251 181.948 136.224 181.915 136.244C181.881 136.266 180.564 136.299 178.997 136.313C177.997 136.338 176.996 136.323 175.997 136.266C175.856 136.211 175.856 136.143 175.822 105.369L175.64 104.967C175.52 104.702 175.383 104.443 175.226 104.192C174.989 103.859 174.695 103.557 174.355 103.293C173.986 102.931 173.521 102.642 172.997 102.448C172.619 102.293 172.222 102.174 171.812 102.094C171.53 102.094 170.103 102.033 168.106 102.039C166.873 102 165.638 102.025 164.41 102.114C164.086 102.176 163.769 102.263 163.465 102.373C163.115 102.513 162.782 102.68 162.47 102.87C162.144 103.071 161.843 103.298 161.575 103.551C161.335 103.794 161.124 104.057 160.945 104.334C160.809 104.576 160.695 104.827 160.606 105.083C160.5 105.576 160.433 106.075 160.406 106.574C160.348 107.371 160.332 109.074 160.356 112.139C160.356 114.569 160.356 122.489 160.356 142.898H157.39C155.731 142.898 154.397 142.898 154.363 142.898C154.331 142.898 154.314 134.474 154.314 124.233C154.314 111.205 154.314 105.451 154.389 105.069C154.435 104.712 154.507 104.357 154.605 104.008C154.703 103.677 154.821 103.353 154.96 103.033C155.129 102.67 155.324 102.316 155.54 101.971C155.804 101.561 156.102 101.167 156.436 100.793C156.852 100.357 157.303 99.9457 157.787 99.5609C158.27 99.1722 158.791 98.817 159.345 98.4982C159.784 98.2647 160.237 98.0512 160.705 97.8578C161.053 97.7285 161.616 97.5447 161.964 97.449C162.313 97.3542 162.843 97.2384 163.149 97.1838C163.641 97.1197 164.136 97.0785 164.634 97.0613C165.097 97.0345 166.606 97 167.949 97Z" fill="#1D1E1C"/>
</g>
</g>
<defs>
<filter id="filter0_f_3_25" x="-12.5232" y="-113.27" width="569.218" height="439.81" filterUnits="userSpaceOnUse" color-interpolation-filters="sRGB">
<feFlood flood-opacity="0" result="BackgroundImageFix"/>
<feBlend mode="normal" in="SourceGraphic" in2="BackgroundImageFix" result="shape"/>
<feGaussianBlur stdDeviation="100" result="effect1_foregroundBlur_3_25"/>
</filter>
<filter id="filter1_f_3_25" x="-486.438" y="-385.498" width="1088.52" height="871.943" filterUnits="userSpaceOnUse" color-interpolation-filters="sRGB">
<feFlood flood-opacity="0" result="BackgroundImageFix"/>
<feBlend mode="normal" in="SourceGraphic" in2="BackgroundImageFix" result="shape"/>
<feGaussianBlur stdDeviation="200" result="effect1_foregroundBlur_3_25"/>
</filter>
<filter id="filter2_f_3_25" x="-254.786" y="-18.2938" width="608.175" height="446.919" filterUnits="userSpaceOnUse" color-interpolation-filters="sRGB">
<feFlood flood-opacity="0" result="BackgroundImageFix"/>
<feBlend mode="normal" in="SourceGraphic" in2="BackgroundImageFix" result="shape"/>
<feGaussianBlur stdDeviation="100" result="effect1_foregroundBlur_3_25"/>
</filter>
<clipPath id="clip0_3_25">
<rect width="420" height="240" fill="white"/>
</clipPath>
</defs>
</svg>
